<svg id="Layer_1" data-name="Layer 1" xmlns="http://www.w3.org/2000/svg" viewBox="0 0 68.75 68.75"><defs><style>.cls-1{fill:none;stroke:#fff;stroke-miterlimit:10;stroke-width:0.75px;}.cls-2{fill:#fff;}</style></defs><title>cbmlogo</title><circle class="cls-1" cx="34.38" cy="34.38" r="34"/><line class="cls-1" x1="12.84" y1="12.84" x2="55.91" y2="55.91"/><line class="cls-1" x1="12.84" y1="55.91" x2="55.91" y2="12.84"/><path class="cls-2" d="M20.93,41.26a.22.22,0,0,1,.14.05l.32.35a5.44,5.44,0,0,1-.77.67,4.38,4.38,0,0,1-.9.51,5,5,0,0,1-1.08.33,6.43,6.43,0,0,1-1.29.12,5.62,5.62,0,0,1-2.16-.41,5,5,0,0,1-1.68-1.17,5.24,5.24,0,0,1-1.09-1.83A6.91,6.91,0,0,1,12,37.5a6.6,6.6,0,0,1,.4-2.36,5.36,5.36,0,0,1,1.12-1.82,4.91,4.91,0,0,1,1.73-1.19,5.7,5.7,0,0,1,2.22-.42,5.23,5.23,0,0,1,3.69,1.38l-.25.36a.23.23,0,0,1-.2.09.59.59,0,0,1-.31-.17,4.49,4.49,0,0,0-.6-.39,5.6,5.6,0,0,0-1-.39,5,5,0,0,0-1.37-.17,4.81,4.81,0,0,0-1.88.35,4.12,4.12,0,0,0-1.46,1,4.56,4.56,0,0,0-1,1.6,6.37,6.37,0,0,0-.34,2.12,6.2,6.2,0,0,0,.35,2.14,4.79,4.79,0,0,0,.95,1.6,4.39,4.39,0,0,0,1.44,1,4.6,4.6,0,0,0,1.79.34,5.94,5.94,0,0,0,1.08-.08,3.91,3.91,0,0,0,.88-.24,3.49,3.49,0,0,0,.74-.39,4.73,4.73,0,0,0,.68-.54l.08,0A.13.13,0,0,1,20.93,41.26Z" transform="translate(-3.13 -3.13)"/><path class="cls-2" d="M37,52.12a6.37,6.37,0,0,1,1.68.19,3.16,3.16,0,0,1,1.18.56,2.28,2.28,0,0,1,.69.91A3.12,3.12,0,0,1,40.78,55a2.34,2.34,0,0,1-.16.86,2.69,2.69,0,0,1-.44.77,3.06,3.06,0,0,1-.72.61,4.11,4.11,0,0,1-1,.4,3.57,3.57,0,0,1,2.05.88,2.4,2.4,0,0,1,.71,1.82,3.21,3.21,0,0,1-.25,1.3,2.62,2.62,0,0,1-.75,1,3.23,3.23,0,0,1-1.2.61,5.65,5.65,0,0,1-1.61.22H33.76V52.12Zm-2.43.64v4.65H37a4.07,4.07,0,0,0,1.34-.2,2.6,2.6,0,0,0,.91-.53,2,2,0,0,0,.52-.74,2.13,2.13,0,0,0,.17-.86,2.1,2.1,0,0,0-.72-1.73A3.55,3.55,0,0,0,37,52.76Zm2.84,10a3.47,3.47,0,0,0,2.25-.64,2.26,2.26,0,0,0,.77-1.82,2.18,2.18,0,0,0-.21-1,1.89,1.89,0,0,0-.59-.73,2.75,2.75,0,0,0-.94-.46A4.5,4.5,0,0,0,37.43,58H34.58v4.77Z" transform="translate(-3.13 -3.13)"/><path class="cls-2" d="M63.09,31.84V43.16h-.71V33.51c0-.14,0-.28,0-.44L58,41a.35.35,0,0,1-.32.21H57.5a.34.34,0,0,1-.32-.21L52.6,33.06a3.64,3.64,0,0,1,0,.45v9.65h-.72V31.84h.57l.17,0a.32.32,0,0,1,.13.13l4.57,7.87a3.48,3.48,0,0,1,.21.48,2.6,2.6,0,0,1,.1-.25l.12-.23L62.22,32a.32.32,0,0,1,.13-.13l.18,0Z" transform="translate(-3.13 -3.13)"/><path class="cls-1" d="M38.9,16.11c0-.8,0-1-.25-1.24s-.6-.19-1.22-.19a2.43,2.43,0,0,0-1.13.16c-.27.2-.19.86-.19,1.38,0,.84,0,1.26.72,1.39.23,0,.67.07.67.07a6.81,6.81,0,0,0,1-.13C38.85,17.41,38.9,17.13,38.9,16.11Z" transform="translate(-3.13 -3.13)"/><path class="cls-1" d="M45,13a11.89,11.89,0,0,0-2.79.31,10,10,0,0,0-3.14,1.37,2.37,2.37,0,0,1,.27,1.45c0,1,0,1.65-.7,1.92l-.14,0a7.15,7.15,0,0,0,1.82,2.32c1,.76,3.73,1.12,3.73,1.12a9.15,9.15,0,0,0,1.64-3.76C46.15,15.89,45,13,45,13Z" transform="translate(-3.13 -3.13)"/><path class="cls-1" d="M35.59,16.25V16a2.27,2.27,0,0,1,.24-1.37,9.91,9.91,0,0,0-3.49-1.3,11.09,11.09,0,0,0-2.73-.06,14.24,14.24,0,0,0-.35,4.81A4.64,4.64,0,0,0,31,21.59s2.89-.53,3.79-1.38A7.28,7.28,0,0,0,36.31,18C35.6,17.71,35.59,17,35.59,16.25Z" transform="translate(-3.13 -3.13)"/></svg>