<?xml version="1.0" standalone="no"?>
<!DOCTYPE svg PUBLIC "-//W3C//DTD SVG 20010904//EN"
 "http://www.w3.org/TR/2001/REC-SVG-20010904/DTD/svg10.dtd">
<svg version="1.0" xmlns="http://www.w3.org/2000/svg"
 width="1472.000000pt" height="1472.000000pt" viewBox="0 0 1472.000000 1472.000000"
 preserveAspectRatio="xMidYMid meet">
<metadata>
Created by potrace 1.14, written by Peter Selinger 2001-2017
</metadata>
<g transform="translate(0.000000,1472.000000) scale(0.100000,-0.100000)"
fill="#000000" stroke="none">
<path d="M4699 10786 c-2 -2 -44 -7 -93 -11 -49 -4 -96 -8 -106 -10 -9 -2 -41
-6 -70 -10 -29 -4 -62 -9 -74 -11 -12 -2 -41 -7 -66 -10 -25 -3 -52 -8 -60 -9
-46 -10 -218 -47 -235 -50 -39 -8 -60 -13 -60 -15 0 -1 -7 -3 -15 -5 -8 -1
-60 -15 -115 -30 -55 -15 -104 -28 -110 -30 -5 -1 -17 -4 -25 -7 -8 -3 -67
-23 -130 -43 -140 -45 -402 -141 -475 -175 -11 -5 -87 -39 -170 -76 -288 -129
-608 -303 -813 -441 -35 -24 -67 -43 -72 -43 -4 0 -10 -4 -12 -8 -2 -5 -25
-23 -53 -42 -27 -19 -73 -52 -101 -75 -28 -22 -80 -62 -115 -90 -220 -173
-479 -422 -674 -649 -27 -33 -55 -64 -60 -70 -6 -6 -28 -33 -50 -61 -22 -27
-44 -55 -50 -61 -5 -7 -19 -24 -30 -40 -11 -15 -25 -33 -32 -39 -7 -7 -9 -15
-6 -19 4 -3 2 -6 -4 -6 -6 0 -41 -46 -79 -102 -38 -57 -72 -105 -75 -108 -6
-6 -137 -219 -181 -295 -31 -54 -164 -324 -192 -390 -10 -22 -21 -49 -26 -60
-13 -29 -72 -178 -75 -190 -1 -5 -5 -17 -8 -25 -3 -8 -13 -40 -22 -70 -10 -30
-20 -62 -23 -70 -3 -8 -7 -24 -9 -35 -2 -11 -7 -31 -13 -45 -18 -47 -58 -227
-74 -330 -3 -19 -8 -46 -10 -60 -43 -245 -39 -698 8 -925 7 -35 38 -180 41
-195 2 -8 4 -16 5 -17 3 -3 4 -7 14 -48 12 -47 66 -207 82 -242 8 -17 14 -33
14 -36 0 -7 68 -157 80 -177 5 -8 25 -46 44 -85 39 -76 45 -86 94 -157 17 -26
32 -50 32 -53 0 -3 18 -29 40 -58 22 -29 44 -56 48 -62 58 -79 218 -248 298
-315 65 -55 194 -150 203 -150 5 0 11 -4 13 -8 9 -23 317 -185 423 -222 27
-10 64 -24 80 -30 17 -7 35 -14 40 -15 6 -2 51 -15 100 -30 50 -14 101 -28
115 -31 14 -3 33 -7 42 -10 39 -12 264 -51 333 -59 153 -16 224 -19 455 -19
262 0 355 4 550 28 19 3 60 8 90 11 30 4 82 11 115 17 33 5 69 11 80 13 11 1
61 10 110 19 79 15 110 22 150 32 6 1 25 5 43 8 18 4 79 18 135 32 56 15 109
28 117 29 8 2 17 4 20 6 3 1 10 3 15 4 8 1 38 10 105 30 3 1 19 5 35 10 37 9
185 54 205 62 8 3 20 7 25 9 19 5 240 82 270 95 17 7 38 14 48 16 10 1 31 10
47 18 16 8 36 15 45 15 8 0 15 4 15 10 0 5 3 9 8 8 4 -2 27 6 52 16 25 11 50
20 56 21 5 2 36 14 67 29 32 14 59 26 61 26 2 0 44 18 93 41 48 22 122 56 163
75 41 19 82 38 90 43 8 5 56 30 105 56 50 25 108 56 130 68 22 12 87 49 145
80 58 32 119 66 135 76 17 10 47 28 67 39 21 12 88 53 150 92 62 39 122 77
133 83 10 7 25 18 33 25 7 6 23 17 35 23 11 7 26 16 31 20 21 17 101 74 138
99 21 14 38 28 38 33 0 4 6 7 13 7 7 0 23 10 37 23 14 12 55 44 90 72 36 27
71 54 78 60 7 5 29 24 48 42 19 17 34 29 34 27 0 -4 27 18 74 61 12 11 51 45
85 75 35 30 104 94 154 143 50 48 92 87 93 87 2 0 96 97 180 186 72 77 163
179 234 264 34 41 65 77 69 80 3 3 28 34 56 70 27 36 53 67 57 68 5 2 8 10 8
17 0 7 4 15 8 17 12 4 172 226 172 237 0 5 4 11 8 13 12 4 66 86 103 154 18
33 35 61 39 64 6 4 158 313 180 365 5 11 18 43 30 70 12 28 25 59 30 70 11 28
35 89 36 95 1 7 12 36 35 92 10 26 19 56 19 67 0 11 5 23 10 26 6 4 8 9 6 13
-2 4 2 16 10 27 8 10 14 13 14 7 0 -7 -1 -14 -2 -15 -2 -2 4 -12 12 -21 8 -10
15 -23 17 -30 1 -6 24 -65 51 -131 67 -165 176 -491 206 -615 2 -8 12 -44 21
-80 9 -36 19 -76 22 -90 3 -14 6 -29 7 -35 2 -5 6 -23 10 -40 4 -16 12 -48 17
-70 5 -22 12 -53 14 -70 3 -16 9 -52 14 -80 5 -27 13 -67 16 -89 4 -21 9 -48
11 -60 2 -11 7 -41 10 -66 3 -25 7 -56 9 -70 3 -14 8 -47 11 -75 3 -27 7 -63
10 -80 4 -29 7 -65 19 -235 3 -41 8 -136 10 -210 8 -260 27 -328 117 -426 36
-39 138 -112 138 -99 0 3 14 -2 31 -11 17 -9 41 -18 53 -20 11 -2 32 -6 46
-10 47 -10 95 -15 155 -16 81 0 232 13 255 22 3 1 9 2 14 1 4 -1 14 4 22 10 8
6 14 9 14 6 0 -3 15 -1 33 4 17 6 39 12 47 13 8 1 24 6 35 11 11 4 46 18 79
31 125 50 247 132 334 223 51 54 129 209 183 361 12 36 27 71 32 78 5 6 7 12
3 12 -4 0 0 13 9 30 8 16 15 31 15 32 -1 2 1 10 4 18 3 8 46 139 97 290 50
151 96 286 102 300 6 14 11 27 12 30 1 3 5 14 10 25 5 11 41 103 82 205 40
102 78 194 83 205 5 11 21 49 35 85 31 75 46 96 44 60 -2 -22 32 -271 47 -355
4 -16 8 -41 10 -55 2 -14 5 -36 8 -50 2 -14 7 -43 11 -65 3 -22 10 -56 15 -75
5 -19 11 -53 14 -75 3 -22 10 -60 17 -85 6 -25 13 -56 16 -70 6 -35 82 -257
104 -305 10 -22 30 -69 44 -105 53 -127 165 -335 260 -480 155 -236 321 -433
521 -618 117 -108 118 -110 186 -163 98 -78 87 -69 218 -160 78 -55 287 -179
299 -179 5 0 11 -5 13 -11 2 -5 10 -11 18 -13 8 -1 62 -25 120 -53 140 -67
379 -160 460 -178 8 -2 35 -8 60 -14 65 -16 175 -27 245 -24 74 2 167 13 179
21 5 3 21 7 35 8 107 12 308 106 414 194 10 8 28 23 40 33 66 54 139 136 166
186 29 55 30 61 28 177 -2 118 -8 145 -49 209 -37 57 -144 138 -198 149 -57
12 -97 24 -135 40 -22 10 -47 19 -56 21 -29 6 -281 133 -369 185 -234 139
-479 356 -652 575 -44 55 -85 107 -92 116 -8 9 -15 20 -17 25 -2 5 -26 43 -54
84 -64 97 -199 361 -220 433 -1 4 -4 9 -5 12 -1 3 -3 8 -5 13 -1 4 -5 16 -9
27 -29 76 -35 95 -30 95 4 0 2 6 -4 13 -15 19 -75 265 -88 362 -2 11 -5 31 -7
45 -3 14 -8 48 -12 75 -4 28 -8 57 -10 65 -3 17 -13 93 -20 160 -3 25 -7 52
-9 60 -3 8 -7 49 -11 90 -3 41 -8 93 -10 115 -37 347 -45 886 -20 1320 3 55 7
116 9 135 3 19 7 71 11 115 3 44 8 94 10 110 2 17 7 57 10 89 3 33 8 73 10 90
6 37 14 96 21 151 3 22 7 51 10 65 3 14 9 52 14 85 5 33 14 85 20 115 6 30 13
75 16 100 3 24 8 48 10 52 3 5 7 21 10 36 2 15 9 52 16 82 25 124 0 211 -83
292 -43 41 -153 106 -190 111 -8 2 -18 5 -24 8 -5 4 -23 10 -40 14 -16 4 -39
9 -50 12 -67 16 -283 22 -360 9 -92 -16 -176 -39 -231 -63 -22 -9 -42 -17 -46
-17 -4 -1 -13 -7 -20 -13 -6 -7 -18 -13 -25 -13 -8 0 -26 -8 -41 -19 -15 -10
-52 -35 -83 -55 -77 -51 -182 -155 -252 -248 -31 -42 -57 -79 -57 -83 0 -3 -9
-15 -20 -27 -11 -12 -26 -34 -32 -50 -7 -15 -16 -28 -21 -28 -4 0 -12 -10 -17
-22 -6 -13 -26 -43 -44 -68 -19 -25 -35 -50 -35 -57 -1 -7 -9 -17 -18 -22 -10
-6 -15 -11 -11 -11 4 0 -22 -43 -58 -96 -35 -52 -64 -99 -64 -105 0 -5 -3 -9
-7 -9 -5 0 -21 -24 -37 -53 -17 -28 -36 -58 -43 -65 -7 -7 -13 -20 -13 -28 0
-8 -4 -14 -10 -14 -5 0 -10 -6 -10 -14 0 -8 -3 -16 -8 -18 -9 -4 -107 -165
-251 -414 -41 -71 -79 -132 -85 -136 -6 -4 -7 -8 -2 -8 5 0 3 -8 -5 -17 -8
-10 -19 -27 -25 -38 -6 -11 -24 -42 -39 -70 -33 -57 -84 -152 -115 -210 -11
-22 -52 -98 -90 -170 -39 -71 -80 -151 -92 -177 -12 -27 -25 -48 -29 -48 -3 0
-12 15 -19 33 -15 39 -17 45 -71 177 -23 58 -46 109 -51 114 -4 6 -8 18 -8 28
0 10 -4 18 -10 18 -5 0 -10 5 -10 11 0 16 -68 161 -138 294 -85 162 -117 220
-123 225 -3 3 -8 12 -12 20 -4 8 -18 33 -32 55 -14 22 -28 47 -31 55 -4 8 -15
24 -25 35 -10 11 -18 24 -18 28 0 9 -150 236 -168 255 -7 7 -13 16 -13 20 0 4
-12 21 -26 37 -14 17 -32 42 -40 58 -8 15 -18 27 -22 27 -4 0 -16 15 -27 33
-10 17 -21 34 -24 37 -3 3 -33 39 -66 80 -67 85 -86 107 -100 124 -221 255
-464 501 -557 566 -51 35 -137 76 -175 83 -10 2 -36 9 -58 15 -86 24 -326 35
-450 19 -112 -14 -290 -64 -352 -98 -18 -10 -33 -16 -33 -13 0 4 -7 0 -16 -7
-20 -17 -54 -37 -75 -45 -27 -10 -156 -149 -178 -192 -49 -95 -59 -233 -27
-343 9 -29 14 -54 11 -57 -2 -3 1 -14 6 -25 6 -11 12 -29 14 -41 2 -11 8 -46
14 -76 16 -83 33 -190 47 -295 6 -48 26 -321 25 -360 0 -78 -11 -375 -15 -390
-2 -11 -7 -56 -11 -100 -4 -44 -8 -82 -10 -85 -2 -3 -6 -30 -10 -60 -13 -92
-13 -95 -15 -95 -2 0 -9 -34 -16 -80 -4 -22 -22 -98 -40 -170 -44 -167 -39
-149 -65 -230 -13 -38 -23 -72 -24 -75 -1 -3 -7 -18 -14 -35 -6 -16 -21 -55
-32 -85 -11 -30 -26 -68 -33 -85 -7 -16 -19 -43 -26 -60 -7 -16 -16 -37 -21
-45 -5 -8 -12 -22 -15 -30 -9 -23 -97 -198 -134 -265 -43 -77 -103 -174 -157
-252 -24 -34 -43 -66 -43 -72 0 -5 -4 -11 -8 -13 -4 -1 -35 -39 -69 -83 -33
-44 -69 -90 -79 -102 -11 -12 -32 -38 -49 -59 -84 -103 -299 -318 -421 -421
-86 -72 -256 -208 -299 -238 -15 -11 -36 -28 -46 -37 -10 -9 -28 -22 -40 -29
-13 -6 -28 -16 -33 -21 -26 -23 -198 -138 -206 -138 -4 0 -10 -3 -12 -7 -4
-10 -107 -73 -118 -73 -5 0 -10 -4 -12 -8 -4 -10 -230 -138 -259 -147 -10 -4
-19 -11 -19 -16 0 -5 -4 -9 -9 -9 -5 0 -69 -28 -143 -63 -73 -35 -149 -71
-168 -79 -59 -27 -115 -51 -120 -52 -3 -1 -43 -17 -90 -35 -133 -52 -379 -136
-460 -156 -8 -2 -42 -11 -75 -20 -89 -24 -217 -56 -245 -62 -14 -2 -45 -9 -70
-14 -25 -6 -54 -13 -65 -15 -11 -3 -33 -6 -50 -9 -16 -2 -39 -6 -50 -8 -170
-39 -559 -50 -696 -21 -13 2 -35 6 -49 8 -151 22 -346 104 -490 204 -72 50
-236 213 -290 288 -19 27 -40 55 -47 62 -6 6 -15 21 -18 32 -3 11 -11 20 -16
20 -5 0 -9 4 -9 10 0 5 -18 39 -40 75 -22 36 -37 65 -33 65 3 0 -1 8 -9 18
-42 47 -147 367 -162 492 -3 25 -8 56 -11 70 -18 87 -24 348 -11 487 9 96 20
177 31 233 3 14 8 41 11 60 3 19 10 53 16 75 6 22 13 48 15 58 6 32 54 201 63
222 13 30 24 69 22 78 -1 4 3 7 8 7 6 0 10 8 10 18 0 9 11 41 25 70 13 29 24
53 24 55 -1 4 20 53 51 122 17 39 30 70 29 70 -1 0 10 19 24 42 15 24 27 45
27 48 0 3 23 47 52 98 44 78 76 130 161 261 29 45 174 236 220 291 129 152
282 304 403 399 27 22 56 47 65 55 9 9 26 23 39 31 12 8 28 20 34 25 6 6 34
26 61 45 28 18 52 36 55 40 16 18 302 188 385 229 133 64 215 102 217 100 2
-1 21 8 43 20 22 11 47 21 55 21 9 0 20 4 26 9 8 8 238 88 274 95 8 2 22 6 30
9 15 5 134 33 180 41 14 3 36 8 50 11 14 3 48 8 75 11 28 3 64 7 80 9 48 7
266 8 310 1 34 -5 62 -10 110 -20 195 -40 405 -244 504 -489 36 -86 68 -193
63 -209 -1 -4 2 -18 7 -31 27 -70 30 -370 6 -527 -2 -14 -7 -45 -10 -70 -4
-24 -8 -47 -10 -50 -2 -3 -6 -21 -9 -40 -3 -19 -10 -50 -15 -67 -5 -18 -7 -33
-4 -33 3 0 0 -6 -6 -14 -6 -8 -11 -18 -10 -22 1 -5 0 -16 -3 -24 -3 -8 -18
-53 -33 -100 -31 -97 -67 -192 -101 -268 -13 -29 -24 -57 -24 -62 0 -6 -4 -10
-10 -10 -5 0 -10 -9 -10 -19 0 -11 -4 -22 -9 -25 -5 -3 -21 -29 -36 -58 -15
-29 -40 -72 -56 -96 -16 -24 -29 -45 -29 -48 0 -8 -142 -197 -179 -239 -81
-90 -231 -235 -301 -291 -41 -32 -76 -62 -78 -66 -2 -5 -10 -8 -17 -8 -7 0
-15 -3 -17 -7 -4 -10 -144 -103 -154 -103 -4 0 -15 -6 -23 -14 -30 -26 -228
-122 -342 -166 -80 -30 -118 -51 -179 -94 -55 -39 -180 -161 -180 -176 0 -5
-12 -22 -26 -39 -14 -17 -23 -31 -19 -31 4 0 3 -6 -2 -12 -38 -48 -51 -202
-23 -279 53 -143 144 -210 365 -265 28 -7 231 -7 285 0 262 35 579 149 838
303 41 23 76 43 79 43 2 0 59 36 125 80 66 44 124 80 128 80 5 0 10 3 12 8 2
4 30 27 63 51 33 25 62 48 63 53 2 4 10 8 17 8 7 0 15 3 17 8 2 4 57 52 123
107 185 154 441 415 580 590 22 28 42 52 45 55 16 15 126 169 186 260 38 58
74 111 81 118 6 6 15 22 19 35 4 12 10 24 13 27 27 20 241 458 241 493 0 7 4
17 9 23 7 7 54 138 68 189 16 59 63 251 67 277 3 18 7 42 10 53 2 11 7 47 10
80 4 33 10 80 13 105 7 59 7 280 -1 350 -19 179 -15 150 -35 245 -7 33 -22 92
-34 130 -11 39 -22 75 -23 80 -22 79 -106 264 -166 364 -21 34 -38 67 -38 71
0 5 -3 10 -7 12 -12 5 -53 66 -53 78 0 5 -4 10 -9 10 -5 0 -17 13 -28 29 -23
37 -128 155 -172 195 -18 17 -46 42 -61 56 -59 54 -79 68 -84 63 -3 -4 -6 -2
-6 4 0 13 -158 116 -249 162 -64 33 -261 111 -316 126 -16 5 -34 9 -40 11 -13
4 -55 14 -80 19 -11 3 -31 7 -45 11 -14 3 -38 7 -55 10 -16 3 -41 7 -55 10
-14 3 -45 7 -70 10 -25 3 -58 8 -75 11 -34 6 -500 14 -506 9z"/>
</g>
</svg>
